<?xml version="1.0" standalone="no"?>
<!DOCTYPE svg PUBLIC "-//W3C//DTD SVG 1.1//EN"
    "http://www.w3.org/Graphics/SVG/1.1/DTD/svg11.dtd">
 
<svg width="100%" height="100%" version="1.1"
    xmlns="http://www.w3.org/2000/svg">
    
    <filter id="blur">
    <feGaussianBlur stdDeviation="5 5" />
</filter>

<defs>
<linearGradient id="gradient" 
x1="50%" y1="0%"
x2="0%" y2="100%">
<stop offset="0%" style="stop-color:rgb(255,255,50)"/>
<stop offset="100%" style="stop-color:rgb(255,0,50)"/>
</linearGradient>
</defs>
 
<circle cx="102" cy="102" r="100" stroke="black" stroke-width="2"
    style="fill:url(#gradient)"/>


<path d="M30 40 L170 40 L170 60 L110 60 L110 190 L90 190 L90 60 L30 60 Z"
fill="brown"
filter="url(#blur)"/>
<path d="M120,70 L120,190 L150,190 L170,160 L150,130 L170,100 L150,70 L120,70
M135,85 L145,85 L155,100 L145,115 L135,115
M135,145 L145,145 L155,160 L145,175 L135,175 Z"
fill="brown"
filter="url(#blur)"/>

</svg> 
